# xmcd CD database file
#
# Track frame offsets:
#	150
#	47949
#	99441
#	154634
#	216686
#
# Disc length: 3008 seconds
#
# Revision: 0
# Processed by: cddbd v1.5.1PL0 Copyright (c) Steve Scherf et al.
# Submitted via: CDex 1.51
#
DISCID=430bbe05
DTITLE=生天目仁美・他 - 女子高生ドラマCD
DYEAR=2004
DGENRE=アニメ
TTITLE0=第1話「昼飯戦争」
TTITLE1=第2話「花のアラシ・勘違いロストバージン計画」
TTITLE2=第3話「レッツビューティー宣言」
TTITLE3=第4話「香田・命・演劇魂」
TTITLE4=スタッフ・キャスト紹介
EXTD=YEAR: 2004
EXTT0=
EXTT1=
EXTT2=
EXTT3=
EXTT4=
PLAYORDER=
